<?xml version="1.0" encoding="UTF-8" standalone="no"?>
<!-- Created with Inkscape (http://www.inkscape.org/) -->

<svg
   width="160mm"
   height="150mm"
   viewBox="0 0 160 150"
   version="1.1"
   id="svg5"
   inkscape:version="1.1.1 (c3084ef, 2021-09-22)"
   sodipodi:docname="planetary_flow_logo.svg"
   xmlns:inkscape="http://www.inkscape.org/namespaces/inkscape"
   xmlns:sodipodi="http://sodipodi.sourceforge.net/DTD/sodipodi-0.dtd"
   xmlns="http://www.w3.org/2000/svg"
   xmlns:svg="http://www.w3.org/2000/svg">
  <sodipodi:namedview
     id="namedview7"
     pagecolor="#ffffff"
     bordercolor="#666666"
     borderopacity="1.0"
     inkscape:pageshadow="2"
     inkscape:pageopacity="0.0"
     inkscape:pagecheckerboard="0"
     inkscape:document-units="mm"
     showgrid="false"
     inkscape:object-paths="true"
     inkscape:zoom="0.45438228"
     inkscape:cx="269.59678"
     inkscape:cy="509.48289"
     inkscape:window-width="1312"
     inkscape:window-height="847"
     inkscape:window-x="0"
     inkscape:window-y="25"
     inkscape:window-maximized="0"
     inkscape:current-layer="layer4"
     inkscape:snap-global="true"
     inkscape:snap-object-midpoints="true" />
  <defs
     id="defs2">
    <inkscape:path-effect
       effect="bspline"
       id="path-effect1374"
       is_visible="true"
       lpeversion="1"
       weight="33.333333"
       steps="2"
       helper_size="0"
       apply_no_weight="true"
       apply_with_weight="true"
       only_selected="false" />
    <inkscape:path-effect
       effect="bspline"
       id="path-effect1177"
       is_visible="true"
       lpeversion="1"
       weight="33.333333"
       steps="2"
       helper_size="0"
       apply_no_weight="true"
       apply_with_weight="true"
       only_selected="false" />
    <inkscape:path-effect
       effect="bspline"
       id="path-effect1056"
       is_visible="true"
       lpeversion="1"
       weight="33.333333"
       steps="2"
       helper_size="0"
       apply_no_weight="true"
       apply_with_weight="true"
       only_selected="false" />
    <inkscape:path-effect
       effect="bspline"
       id="path-effect859"
       is_visible="true"
       lpeversion="1"
       weight="33.333333"
       steps="2"
       helper_size="0"
       apply_no_weight="true"
       apply_with_weight="true"
       only_selected="false" />
    <inkscape:path-effect
       effect="bspline"
       id="path-effect1373"
       is_visible="true"
       lpeversion="1"
       weight="33.333333"
       steps="2"
       helper_size="0"
       apply_no_weight="true"
       apply_with_weight="true"
       only_selected="false" />
    <inkscape:path-effect
       effect="bspline"
       id="path-effect1176"
       is_visible="true"
       lpeversion="1"
       weight="33.333333"
       steps="2"
       helper_size="0"
       apply_no_weight="true"
       apply_with_weight="true"
       only_selected="false" />
  </defs>
  <g
     inkscape:groupmode="layer"
     id="layer4"
     inkscape:label="stack"
     style="display:inline">
    <rect
       style="fill:#ebebeb;fill-opacity:1;stroke:#5c5c5c;stroke-width:0.2;stroke-linecap:round;stroke-linejoin:miter;stroke-miterlimit:4;stroke-dasharray:none;stroke-opacity:1"
       id="rect1114-9"
       width="121.61176"
       height="112.65952"
       x="11.077402"
       y="11.575546" />
    <rect
       style="fill:#ebebeb;fill-opacity:1;stroke:#5c5c5c;stroke-width:0.2;stroke-linecap:round;stroke-linejoin:miter;stroke-miterlimit:4;stroke-dasharray:none;stroke-opacity:1"
       id="rect1114-9-2"
       width="121.61176"
       height="112.65952"
       x="18.321394"
       y="17.925552" />
    <rect
       style="fill:#ffffff;stroke:#5c5c5c;stroke-width:0.2;stroke-linecap:square;stroke-linejoin:miter;stroke-miterlimit:4;stroke-dasharray:none;stroke-opacity:1"
       id="rect1114-9-2-3"
       width="121.61176"
       height="112.65952"
       x="25.701017"
       y="24.455788" />
  </g>
  <g
     inkscape:groupmode="layer"
     id="layer2"
     inkscape:label="curve cutout"
     style="display:none" />
  <g
     inkscape:label="disc"
     inkscape:groupmode="layer"
     id="layer1"
     style="display:none">
    <path
       style="fill:#85becc;fill-opacity:1;stroke:none;stroke-width:3.63524;stroke-linecap:round;stroke-linejoin:round;stroke-miterlimit:4;stroke-dasharray:none;stroke-opacity:1"
       d=""
       id="path9365"
       transform="scale(0.26458333)" />
  </g>
  <g
     inkscape:groupmode="layer"
     id="layer3"
     inkscape:label="curve"
     style="display:none" />
  <g
     inkscape:groupmode="layer"
     id="layer6"
     inkscape:label="curve accent"
     style="display:none" />
  <g
     inkscape:groupmode="layer"
     id="layer5"
     inkscape:label="outline"
     style="display:inline">
    <circle
       style="display:inline;fill:#9ba4f1;fill-opacity:1;stroke:none;stroke-width:2.187;stroke-linecap:round;stroke-linejoin:round;stroke-miterlimit:4;stroke-dasharray:none;stroke-opacity:1"
       id="path894-5"
       cx="112.29126"
       cy="37.422215"
       transform="rotate(24.610082)"
       r="46.171505" />
    <path
       id="path11575"
       style="display:inline;fill:#c8b7be;fill-opacity:1;stroke:none;stroke-width:2.48588;stroke-linecap:round;stroke-linejoin:round;stroke-miterlimit:4;stroke-dasharray:none;stroke-opacity:1"
       d="M 52.629026,49.450043 A 46.171506,46.171506 0 0 0 44.84087,60.939265 c 1.385417,3.700727 3.368339,6.763564 6.281272,10.150284 3.853003,4.47966 6.404224,6.577407 13.318567,10.950236 6.919018,4.37578 8.951475,5.939443 11.644767,8.959144 5.220999,5.8538 7.087468,12.704031 5.719548,20.991481 -0.848204,5.13887 -2.952628,9.65076 -6.346383,13.59194 a 46.171506,46.171506 0 0 0 43.389079,-11.86336 c -0.5809,-0.38759 -1.13771,-0.77299 -1.58646,-1.11363 -4.20789,-3.19428 -5.73552,-6.03649 -8.19485,-15.247129 -2.11417,-7.91796 -4.23428,-12.163771 -8.01037,-16.040883 -4.255716,-4.36962 -10.287015,-7.241616 -19.717656,-9.389607 -10.776511,-2.45455 -13.945735,-3.587959 -18.282087,-6.538619 -2.95366,-2.00978 -7.617195,-7.793603 -8.980331,-11.137304 -0.588941,-1.444652 -1.070197,-3.049582 -1.44694,-4.801775 z" />
    <circle
       style="display:inline;fill:none;fill-opacity:1;stroke:none;stroke-width:2.187;stroke-linecap:round;stroke-linejoin:miter;stroke-miterlimit:4;stroke-dasharray:none;stroke-opacity:1"
       id="path894-5-3"
       cx="112.29126"
       cy="37.422215"
       transform="rotate(24.610082)"
       r="46.171505" />
    <path
       id="path11575-4"
       style="display:inline;fill:#a793ac;fill-opacity:1;stroke:none;stroke-width:2.40733;stroke-linecap:round;stroke-linejoin:round;stroke-miterlimit:4;stroke-dasharray:none;stroke-opacity:1"
       d="m 53.218137,48.837678 a 46.171506,46.774798 0 0 0 -4.695836,5.824966 c 3.036568,5.833152 6.509861,9.397762 12.076266,13.108763 5.263277,3.50892 8.519038,4.952158 16.995859,7.533388 8.48246,2.582942 11.048193,3.623316 14.697811,5.962944 7.07485,4.53544 10.860913,10.978941 11.601363,19.744531 0.72474,8.57942 -2.27119,16.41364 -9.086787,23.76082 -0.57032,0.61479 -1.076698,1.14686 -1.586465,1.66553 a 46.171506,46.171506 0 0 0 0.309541,-0.0408 53.257799,48.499479 0 0 0 17.181381,-6.30969 46.171506,46.171506 0 0 0 17.36586,-19.26704 c -1.04492,-0.43258 -2.10826,-0.911782 -2.90215,-1.326537 -4.54297,-2.37322 -6.40858,-4.809837 -10.00869,-13.069486 -3.09482,-7.10045 -5.72279,-10.762932 -9.92962,-13.83843 -4.74119,-3.466182 -11.032916,-5.271532 -20.569807,-5.900933 -10.89788,-0.71922 -14.156433,-1.315728 -18.7942,-3.442166 -3.158972,-1.448411 -8.482277,-6.178351 -10.251054,-9.107971 -0.924592,-1.531401 -1.726623,-3.301828 -2.403472,-5.297869 z" />
  </g>
  <g
     inkscape:groupmode="layer"
     id="layer8"
     inkscape:label="outline 2"
     style="display:inline">
    <path
       id="path11575-4-7-4"
       style="display:inline;fill:#927a99;fill-opacity:1;stroke:none;stroke-width:2.40733;stroke-linecap:round;stroke-linejoin:round;stroke-miterlimit:4;stroke-dasharray:none;stroke-opacity:1"
       d="m 54.582922,46.772686 a 46.171506,46.774798 0 0 0 -1.942518,2.19625 c 0.681501,2.00759 1.489168,3.78902 2.41949,5.32991 1.782956,2.95313 7.148899,7.7208 10.33322,9.18083 4.674989,2.1435 7.959763,2.74457 18.945093,3.46956 9.61341,0.63445 15.955413,2.45447 20.734653,5.94847 4.24059,3.10018 6.88956,6.79211 10.00921,13.94954 3.62899,8.32593 5.50987,10.78213 10.0893,13.174394 0.79528,0.41547 1.85879,0.89469 2.90577,1.3286 a 46.171506,46.171506 0 0 0 1.36477,-2.594164 c -1.04492,-0.43257 -2.10825,-0.91178 -2.90214,-1.32653 -4.54297,-2.37322 -6.40859,-4.80984 -10.0087,-13.06949 -3.09482,-7.10045 -5.7228,-10.76292 -9.92962,-13.83843 -4.74119,-3.46617 -11.032923,-5.27153 -20.569813,-5.90093 -10.89788,-0.71922 -14.156424,-1.31573 -18.794192,-3.44217 -3.158969,-1.44841 -8.482274,-6.17835 -10.251053,-9.10797 -0.924587,-1.53139 -1.726621,-3.30183 -2.40347,-5.29787 z" />
  </g>
  <g
     inkscape:groupmode="layer"
     id="layer7"
     inkscape:label="outline 1"
     style="display:inline">
    <circle
       style="display:inline;fill:none;fill-opacity:1;stroke:#5f5f5f;stroke-width:3.487;stroke-linecap:round;stroke-linejoin:round;stroke-miterlimit:4;stroke-dasharray:none;stroke-opacity:1"
       id="path894-5-7"
       cx="112.29126"
       cy="37.422215"
       transform="rotate(24.610082)"
       r="46.171505" />
  </g>
</svg>
